<?xml version="1.0" encoding="utf-8" ?>
<svg xmlns="http://www.w3.org/2000/svg" xmlns:xlink="http://www.w3.org/1999/xlink" width="638" height="634">
	<g/>
	<g>
		<path fill="#FEFEFE" d="M121.747 68.045C127.84 67.3544 134.476 67.8475 140.617 67.8522L176.876 67.8764L298.599 67.8741L441.798 67.8604L485.799 67.8485C494.843 67.8484 504.077 67.4564 513.078 68.3703C527.37 69.8215 543.234 75.3725 555.446 82.9382C579.705 97.9662 597.752 121.736 604.04 149.783C610.844 180.131 605.519 207.214 588.978 233.286C574.515 256.082 549.335 273.037 523.095 278.848Q520.829 279.354 518.544 279.761Q516.258 280.168 513.957 280.475Q511.656 280.782 509.344 280.988Q507.032 281.194 504.713 281.299Q502.394 281.404 500.072 281.408Q497.751 281.411 495.431 281.313Q493.112 281.215 490.799 281.016Q488.486 280.817 486.184 280.518Q483.882 280.218 481.595 279.818Q479.309 279.418 477.042 278.918Q474.775 278.419 472.531 277.821Q470.288 277.223 468.074 276.528Q465.859 275.832 463.676 275.041Q461.494 274.249 459.348 273.363Q457.202 272.477 455.097 271.499Q452.992 270.52 450.932 269.45C446.756 267.307 442.802 264.702 438.844 262.186C420.926 249.205 406.343 231.368 399.374 210.17C397.279 203.796 396.003 197.223 394.795 190.637L394.469 190.597C389.055 189.889 383.244 190.87 377.74 190.88L323.167 191.265L259.366 191.016C255.435 191.009 251.477 191.041 247.551 190.859C244.82 190.732 241.859 190.233 239.148 190.448C238.327 190.514 238.264 190.556 237.764 191.155C237.888 206.205 225.859 229.413 216.38 240.942C198.104 263.17 170.565 278.491 141.808 281.079C113.694 283.609 84.7302 274.005 63.1312 255.956C48.4806 243.713 36.2597 225.156 30.8415 206.881C28.1826 197.912 26.848 188.733 26.0244 179.438C25.4581 173.046 26.2608 167.933 26.9757 161.672C27.3088 158.756 27.2767 155.746 27.8098 152.86C30.9511 135.852 39.318 118.849 50.4619 105.624C68.1367 84.6479 94.2487 70.3239 121.747 68.045ZM141.899 148.724L392.873 148.735L468.46 148.721L490.003 148.684C494.396 148.662 498.988 148.362 503.344 148.882C507.785 149.411 511.946 151.753 515.061 154.917C518.976 158.893 521.246 164.71 521.197 170.287C521.149 175.558 518.319 181.043 514.55 184.668C512.366 186.768 509.475 188.529 506.545 189.32C497.24 191.833 486.358 190.874 476.757 190.879C468.261 190.883 459.739 191.009 451.247 190.773C448.424 190.694 438.456 189.459 436.84 190.976C437.221 193.321 438.51 195.648 439.44 197.834C444.56 209.862 451.748 219.628 462.396 227.34C474.063 235.79 486.039 239.124 500.307 239.046C503.989 239.026 507.687 239.014 511.33 238.406C526.798 235.822 542.788 225.448 551.866 212.673C555.824 207.103 559.988 200.085 561.969 193.552C562.874 190.567 563.372 187.385 564.001 184.327C565.12 178.889 565.831 174.364 564.862 168.831C563.986 163.83 563.373 158.392 561.802 153.573C561.064 151.31 559.809 149.226 558.747 147.106C553.506 136.635 546.638 127.907 536.941 121.133C522.345 110.935 508.204 109.26 490.906 109.19C455.822 110.291 420.656 109.85 385.557 109.852L227.789 109.813Q198.244 109.85 168.702 109.354Q153.117 109.058 137.545 109.779C131.214 110.016 124.646 110.101 118.402 111.233C106.35 113.417 94.3343 120.222 86.0149 129.151C76 139.901 70.2323 152.86 68.3713 167.345C68.0673 169.712 67.5893 172.245 67.6578 174.632C67.7249 176.972 68.1208 179.357 68.3824 181.683C70.3236 198.946 77.2018 211.649 90.1094 223.313C98.8582 231.22 111.4 237.163 123.1 238.65C128.271 239.307 133.967 239.13 139.172 238.849C155.013 237.995 170.924 228.483 181.267 216.785C186.289 211.105 194.207 198.392 195.832 190.813L195.635 190.458C190.499 189.675 185.299 190.645 180.144 190.799C172.869 191.017 165.558 190.858 158.28 190.861C149.209 190.864 132.86 192.013 124.905 189.132C121.262 187.814 118.088 185.152 115.808 182.05C112.353 177.348 111.215 171.512 112.101 165.789C112.967 160.196 115.703 155.645 120.316 152.337C126.862 147.644 134.286 148.642 141.899 148.724Z"/>
		<path fill="#FEFEFE" d="M136.339 320.409C145.57 320.064 154.881 320.294 164.12 320.294L213.609 320.295L360.859 320.333L452.92 320.307L481.351 320.321C487.932 320.339 494.655 320.206 501.209 320.814C506.168 321.274 510.88 323.117 514.552 326.544C518.807 330.516 521.118 335.655 521.275 341.467Q521.292 342.03 521.281 342.593Q521.27 343.155 521.231 343.717Q521.191 344.279 521.123 344.837Q521.056 345.396 520.96 345.951Q520.864 346.506 520.74 347.055Q520.617 347.604 520.466 348.147Q520.314 348.689 520.136 349.223Q519.958 349.757 519.753 350.281Q519.548 350.806 519.316 351.319Q519.085 351.832 518.828 352.333Q518.572 352.834 518.29 353.322Q518.008 353.809 517.702 354.282Q517.396 354.754 517.067 355.211Q516.738 355.667 516.386 356.107Q516.034 356.546 515.66 356.967Q515.286 357.388 514.892 357.79C509.891 362.913 503.75 363.802 496.917 363.826L243.552 364.087L166.658 364.118L142.789 364.065C138.248 364.042 133.502 364.259 128.993 363.765C125.109 363.339 121.482 361.244 118.568 358.71C114.194 354.909 111.584 349.74 111.217 343.951C110.847 338.119 112.253 332.779 116.184 328.353C122.123 321.666 127.948 320.923 136.339 320.409Z"/>
		<path fill="#FEFEFE" d="M428.947 387.993C429.129 387.974 429.31 387.952 429.492 387.936C434.885 387.453 440.013 389.427 444.069 392.904C448.712 396.882 450.53 401.227 451.003 407.27C451.322 411.359 451.209 415.53 451.238 419.633C451.297 428.163 451.221 436.674 451.159 445.201L451.27 500.175L451.205 545.577Q451.312 555.364 451.176 565.15C451.142 568.352 451.347 571.828 450.914 575C450.518 577.907 448.626 580.834 446.733 583.025C443.77 586.456 438.926 590.699 434.209 591.075C428.192 591.375 423.202 591.3 418.164 587.517C412.868 583.539 410.464 577.768 409.552 571.373C408.341 562.882 408.885 553.769 408.902 545.204L409.02 501.37L408.818 441.485C408.795 430.974 408.131 419.983 409.161 409.545C409.622 404.877 410.757 399.814 413.657 396.029C417.522 390.982 422.787 388.781 428.947 387.993Z"/>
		<path fill="#FEFEFE" d="M200.234 387.94C205.963 387.507 210.526 389.202 214.964 392.736C219.335 396.217 222.213 400.171 222.806 405.803C223.215 409.689 223.026 413.703 223.025 417.611L223.009 436.337L222.997 497.422L222.981 550.173C222.977 556.993 223.578 568.571 222.736 574.939C222.371 577.702 220.229 580.998 218.478 583.126C214.477 587.985 209.721 590.698 203.454 591.304C198.764 591.287 195.059 590.868 191.073 588.242C186.663 585.336 182.851 580.525 181.823 575.271C179.498 563.386 181.105 548.971 181.497 536.917C181.804 527.486 181.57 517.969 181.572 508.529C181.576 489.102 181.734 469.657 181.505 450.232C181.329 435.314 180.384 420.315 181.755 405.418C182.037 402.354 183.093 399.892 184.82 397.374C188.534 391.96 193.905 389.155 200.234 387.94Z"/>
		<path fill="#FEFEFE" d="M307.599 634C302.081 629.969 297.338 626.405 296.263 619.134C295.695 615.29 295.937 611.214 295.943 607.33L295.973 589.486Q295.747 559.618 295.858 529.75Q296.011 492.35 295.364 454.956C295.226 441.42 294.605 427.588 295.202 414.074C295.45 408.478 295.448 401.596 298.903 396.963C302.266 392.456 308.014 389.112 313.577 388.375C319.491 387.591 324.928 389.134 329.602 392.828C334.105 396.386 336.071 401.003 336.662 406.596C337.879 418.113 337.411 429.836 337.385 441.405L336.946 504.203L337.004 574.961C337.07 587.689 338 600.766 337.031 613.455C336.653 618.415 336.077 622.92 332.856 626.896C330.442 629.877 327.058 631.673 324.079 634L307.599 634Z"/>
	</g>
</svg>
